<?xml version="1.0" encoding="utf-8" standalone="no"?>
<!DOCTYPE svg PUBLIC "-//W3C//DTD SVG 1.1//EN"
  "http://www.w3.org/Graphics/SVG/1.1/DTD/svg11.dtd">
<svg height="504pt" version="1.1" viewBox="0 0 504 504" width="504pt" xmlns="http://www.w3.org/2000/svg" xmlns:xlink="http://www.w3.org/1999/xlink">
 <metadata>
  <rdf:RDF xmlns:cc="http://creativecommons.org/ns#" xmlns:dc="http://purl.org/dc/elements/1.1/" xmlns:rdf="http://www.w3.org/1999/02/22-rdf-syntax-ns#">
   <cc:Work>
    <dc:type rdf:resource="http://purl.org/dc/dcmitype/StillImage"/>
    <dc:date>2021-07-19T22:41:15.478482</dc:date>
    <dc:format>image/svg+xml</dc:format>
    <dc:creator>
     <cc:Agent>
      <dc:title>Matplotlib v3.4.2, https://matplotlib.org/</dc:title>
     </cc:Agent>
    </dc:creator>
   </cc:Work>
  </rdf:RDF>
 </metadata>
 <defs>
  <style type="text/css">*{stroke-linecap:butt;stroke-linejoin:round;}</style>
 </defs>
 <g id="figure_1">
  <g id="patch_1">
   <path d="M 0 504 
L 504 504 
L 504 0 
L 0 0 
z
" style="fill:#ffffff;"/>
  </g>
  <g id="axes_1">
   <g id="patch_2">
    <path d="M 413.532 254.52 
C 413.532 224.662622 404.917832 195.42983 388.727275 170.343401 
C 372.536718 145.256973 349.447152 125.366473 322.240259 113.068181 
C 295.033365 100.769889 264.847426 96.57834 235.319046 100.998504 
C 205.790667 105.418669 178.155256 118.265617 155.742148 137.991631 
L 258.3 254.52 
L 413.532 254.52 
z
" style="fill:#004281;"/>
   </g>
   <g id="patch_3">
    <path d="M 155.742148 137.991631 
C 135.009108 156.238999 119.516846 179.693297 110.870576 205.924335 
C 102.224305 232.155373 100.733332 260.224775 106.552144 287.224159 
C 112.370956 314.223544 125.291392 339.18705 143.974716 359.528111 
C 162.658041 379.869171 186.435885 394.860116 212.844534 402.947674 
L 258.3 254.52 
L 155.742148 137.991631 
z
" style="fill:#006ca3;"/>
   </g>
   <g id="patch_4">
    <path d="M 212.844534 402.947674 
C 236.053914 410.055467 260.610124 411.621347 284.534334 407.519129 
C 308.458545 403.416912 331.090384 393.759828 350.606097 379.326083 
C 370.121809 364.892338 385.982709 346.080339 396.910667 324.406028 
C 407.838625 302.731717 413.532 278.793361 413.532 254.52 
L 258.3 254.52 
L 212.844534 402.947674 
z
" style="fill:#0098bc;"/>
   </g>
   <g id="matplotlib.axis_1"/>
   <g id="matplotlib.axis_2"/>
   <g id="text_1">
    <!-- 36.49% -->
    <g style="fill:#ffffff;" transform="translate(268.790405 174.032658)scale(0.16 -0.16)">
     <defs>
      <path d="M 1856 2560 
Q 2560 2522 2928 2179 
Q 3296 1837 3296 1286 
Q 3296 902 3110 604 
Q 2925 307 2560 134 
Q 2195 -38 1670 -38 
Q 1184 -38 752 118 
Q 320 275 58 538 
L 282 902 
Q 506 672 877 528 
Q 1248 384 1670 384 
Q 2221 384 2521 624 
Q 2822 864 2822 1286 
Q 2822 1702 2521 1939 
Q 2221 2176 1613 2176 
L 1293 2176 
L 1293 2515 
L 2534 4070 
L 243 4070 
L 243 4480 
L 3123 4480 
L 3123 4154 
L 1856 2560 
z
" id="Montserrat-Regular-33" transform="scale(0.015625)"/>
      <path d="M 2189 2682 
Q 2630 2682 2972 2515 
Q 3315 2349 3507 2045 
Q 3699 1741 3699 1338 
Q 3699 928 3500 614 
Q 3302 301 2953 131 
Q 2605 -38 2170 -38 
Q 1280 -38 806 547 
Q 333 1133 333 2202 
Q 333 2950 589 3468 
Q 845 3987 1305 4252 
Q 1766 4518 2381 4518 
Q 3046 4518 3443 4275 
L 3258 3904 
Q 2938 4115 2387 4115 
Q 1645 4115 1222 3644 
Q 800 3174 800 2278 
Q 800 2118 819 1914 
Q 986 2278 1350 2480 
Q 1715 2682 2189 2682 
z
M 2150 352 
Q 2637 352 2941 617 
Q 3245 883 3245 1325 
Q 3245 1766 2941 2028 
Q 2637 2291 2118 2291 
Q 1779 2291 1520 2163 
Q 1261 2035 1113 1811 
Q 966 1587 966 1312 
Q 966 1056 1104 838 
Q 1242 621 1510 486 
Q 1779 352 2150 352 
z
" id="Montserrat-Regular-36" transform="scale(0.015625)"/>
      <path d="M 678 -32 
Q 538 -32 438 70 
Q 339 173 339 320 
Q 339 467 438 566 
Q 538 666 678 666 
Q 819 666 921 566 
Q 1024 467 1024 320 
Q 1024 173 921 70 
Q 819 -32 678 -32 
z
" id="Montserrat-Regular-2e" transform="scale(0.015625)"/>
      <path d="M 4141 1178 
L 3245 1178 
L 3245 0 
L 2784 0 
L 2784 1178 
L 256 1178 
L 256 1510 
L 2630 4480 
L 3142 4480 
L 851 1587 
L 2797 1587 
L 2797 2624 
L 3245 2624 
L 3245 1587 
L 4141 1587 
L 4141 1178 
z
" id="Montserrat-Regular-34" transform="scale(0.015625)"/>
      <path d="M 1728 4518 
Q 2618 4518 3091 3932 
Q 3565 3347 3565 2278 
Q 3565 1530 3309 1011 
Q 3053 493 2592 227 
Q 2131 -38 1517 -38 
Q 851 -38 454 205 
L 640 576 
Q 960 365 1510 365 
Q 2253 365 2675 835 
Q 3098 1306 3098 2202 
Q 3098 2368 3078 2566 
Q 2912 2202 2547 2000 
Q 2182 1798 1709 1798 
Q 1267 1798 924 1964 
Q 582 2131 390 2435 
Q 198 2739 198 3142 
Q 198 3552 396 3865 
Q 595 4179 944 4348 
Q 1293 4518 1728 4518 
z
M 1779 2189 
Q 2118 2189 2377 2317 
Q 2637 2445 2784 2669 
Q 2931 2893 2931 3168 
Q 2931 3424 2793 3641 
Q 2656 3859 2387 3993 
Q 2118 4128 1747 4128 
Q 1261 4128 957 3862 
Q 653 3597 653 3155 
Q 653 2714 957 2451 
Q 1261 2189 1779 2189 
z
" id="Montserrat-Regular-39" transform="scale(0.015625)"/>
      <path d="M 1280 2080 
Q 826 2080 547 2416 
Q 269 2752 269 3296 
Q 269 3840 547 4176 
Q 826 4512 1280 4512 
Q 1728 4512 2009 4179 
Q 2291 3846 2291 3296 
Q 2291 2746 2009 2413 
Q 1728 2080 1280 2080 
z
M 3994 4480 
L 4371 4480 
L 1312 0 
L 934 0 
L 3994 4480 
z
M 1280 2368 
Q 1594 2368 1782 2614 
Q 1971 2861 1971 3296 
Q 1971 3731 1782 3977 
Q 1594 4224 1280 4224 
Q 960 4224 774 3974 
Q 589 3725 589 3296 
Q 589 2867 774 2617 
Q 960 2368 1280 2368 
z
M 4026 -32 
Q 3578 -32 3296 304 
Q 3014 640 3014 1184 
Q 3014 1728 3296 2064 
Q 3578 2400 4026 2400 
Q 4480 2400 4758 2064 
Q 5037 1728 5037 1184 
Q 5037 640 4758 304 
Q 4480 -32 4026 -32 
z
M 4026 256 
Q 4346 256 4531 505 
Q 4717 755 4717 1184 
Q 4717 1613 4531 1862 
Q 4346 2112 4026 2112 
Q 3712 2112 3523 1865 
Q 3334 1619 3334 1184 
Q 3334 749 3523 502 
Q 3712 256 4026 256 
z
" id="Montserrat-Regular-25" transform="scale(0.015625)"/>
     </defs>
     <use xlink:href="#Montserrat-Regular-33"/>
     <use x="56.399994" xlink:href="#Montserrat-Regular-36"/>
     <use x="117.299988" xlink:href="#Montserrat-Regular-2e"/>
     <use x="138.499985" xlink:href="#Montserrat-Regular-34"/>
     <use x="204.599976" xlink:href="#Montserrat-Regular-39"/>
     <use x="265.499969" xlink:href="#Montserrat-Regular-25"/>
    </g>
   </g>
   <g id="text_2">
    <!-- 33.78% -->
    <g style="fill:#ffffff;" transform="translate(140.081286 278.526246)scale(0.16 -0.16)">
     <defs>
      <path d="M 3494 4480 
L 3494 4154 
L 1619 0 
L 1120 0 
L 2963 4070 
L 659 4070 
L 659 3232 
L 205 3232 
L 205 4480 
L 3494 4480 
z
" id="Montserrat-Regular-37" transform="scale(0.015625)"/>
      <path d="M 2899 2349 
Q 3322 2208 3549 1926 
Q 3776 1645 3776 1248 
Q 3776 858 3565 566 
Q 3354 275 2960 118 
Q 2566 -38 2035 -38 
Q 1229 -38 768 307 
Q 307 653 307 1248 
Q 307 1651 528 1929 
Q 749 2208 1171 2349 
Q 826 2483 646 2736 
Q 467 2989 467 3334 
Q 467 3878 892 4198 
Q 1318 4518 2035 4518 
Q 2509 4518 2864 4374 
Q 3219 4230 3417 3961 
Q 3616 3693 3616 3334 
Q 3616 2989 3430 2736 
Q 3245 2483 2899 2349 
z
M 928 3322 
Q 928 2950 1222 2732 
Q 1517 2515 2035 2515 
Q 2554 2515 2851 2732 
Q 3149 2950 3149 3315 
Q 3149 3693 2845 3910 
Q 2541 4128 2035 4128 
Q 1523 4128 1225 3910 
Q 928 3693 928 3322 
z
M 2035 352 
Q 2630 352 2966 595 
Q 3302 838 3302 1254 
Q 3302 1670 2966 1910 
Q 2630 2150 2035 2150 
Q 1446 2150 1110 1910 
Q 774 1670 774 1254 
Q 774 832 1107 592 
Q 1440 352 2035 352 
z
" id="Montserrat-Regular-38" transform="scale(0.015625)"/>
     </defs>
     <use xlink:href="#Montserrat-Regular-33"/>
     <use x="56.399994" xlink:href="#Montserrat-Regular-33"/>
     <use x="112.799988" xlink:href="#Montserrat-Regular-2e"/>
     <use x="133.999985" xlink:href="#Montserrat-Regular-37"/>
     <use x="192.899979" xlink:href="#Montserrat-Regular-38"/>
     <use x="256.699966" xlink:href="#Montserrat-Regular-25"/>
    </g>
   </g>
   <g id="text_3">
    <!-- 29.73% -->
    <g style="fill:#ffffff;" transform="translate(286.713658 333.7874)scale(0.16 -0.16)">
     <defs>
      <path d="M 3392 410 
L 3392 0 
L 250 0 
L 250 326 
L 2112 2150 
Q 2464 2496 2589 2749 
Q 2714 3002 2714 3258 
Q 2714 3654 2442 3875 
Q 2170 4096 1664 4096 
Q 877 4096 442 3597 
L 115 3878 
Q 378 4186 784 4352 
Q 1190 4518 1702 4518 
Q 2387 4518 2787 4195 
Q 3187 3872 3187 3309 
Q 3187 2963 3033 2643 
Q 2880 2323 2451 1907 
L 928 410 
L 3392 410 
z
" id="Montserrat-Regular-32" transform="scale(0.015625)"/>
     </defs>
     <use xlink:href="#Montserrat-Regular-32"/>
     <use x="56.799988" xlink:href="#Montserrat-Regular-39"/>
     <use x="117.699982" xlink:href="#Montserrat-Regular-2e"/>
     <use x="138.899979" xlink:href="#Montserrat-Regular-37"/>
     <use x="197.799973" xlink:href="#Montserrat-Regular-33"/>
     <use x="254.199966" xlink:href="#Montserrat-Regular-25"/>
    </g>
   </g>
  </g>
 </g>
</svg>
