<?xml version="1.0" encoding="utf-8" standalone="no"?>
<!DOCTYPE svg PUBLIC "-//W3C//DTD SVG 1.1//EN"
  "http://www.w3.org/Graphics/SVG/1.1/DTD/svg11.dtd">
<svg height="504pt" version="1.1" viewBox="0 0 504 504" width="504pt" xmlns="http://www.w3.org/2000/svg" xmlns:xlink="http://www.w3.org/1999/xlink">
 <metadata>
  <rdf:RDF xmlns:cc="http://creativecommons.org/ns#" xmlns:dc="http://purl.org/dc/elements/1.1/" xmlns:rdf="http://www.w3.org/1999/02/22-rdf-syntax-ns#">
   <cc:Work>
    <dc:type rdf:resource="http://purl.org/dc/dcmitype/StillImage"/>
    <dc:date>2021-07-19T23:02:45.019589</dc:date>
    <dc:format>image/svg+xml</dc:format>
    <dc:creator>
     <cc:Agent>
      <dc:title>Matplotlib v3.4.2, https://matplotlib.org/</dc:title>
     </cc:Agent>
    </dc:creator>
   </cc:Work>
  </rdf:RDF>
 </metadata>
 <defs>
  <style type="text/css">*{stroke-linecap:butt;stroke-linejoin:round;}</style>
 </defs>
 <g id="figure_1">
  <g id="patch_1">
   <path d="M 0 504 
L 504 504 
L 504 0 
L 0 0 
z
" style="fill:#ffffff;"/>
  </g>
  <g id="axes_1">
   <g id="patch_2">
    <path d="M 413.532 254.52 
C 413.532 232.668787 408.918175 211.061805 399.993173 191.116383 
C 391.06817 171.170961 378.031501 153.33296 361.738315 138.772478 
C 345.445129 124.211997 326.259647 113.25452 305.440354 106.618814 
C 284.621062 99.983108 262.633356 97.817507 240.919539 100.264065 
C 219.205721 102.710624 198.251184 109.714651 179.430457 120.816713 
C 160.60973 131.918774 144.343534 146.870694 131.698862 164.691687 
C 119.054191 182.512681 110.313704 202.804377 106.050742 224.235725 
C 101.78778 245.667073 102.097637 267.758995 106.959987 289.062353 
L 258.3 254.52 
L 413.532 254.52 
z
" style="fill:#004281;"/>
   </g>
   <g id="patch_3">
    <path d="M 106.959987 289.062353 
C 113.461441 317.547098 127.874653 343.625849 148.53439 364.28559 
C 169.194126 384.94533 195.272875 399.358548 223.757618 405.860007 
C 252.242362 412.361466 281.992163 410.690755 309.56987 401.040901 
C 337.147576 391.391046 361.448581 374.148566 379.66526 351.305575 
L 258.3 254.52 
L 106.959987 289.062353 
z
" style="fill:#006ca3;"/>
   </g>
   <g id="patch_4">
    <path d="M 379.66526 351.305575 
C 390.550144 337.656364 399.054883 322.268199 404.820895 305.789887 
C 410.586906 289.311574 413.531999 271.978005 413.532 254.520007 
L 258.3 254.52 
L 379.66526 351.305575 
z
" style="fill:#0098bc;"/>
   </g>
   <g id="matplotlib.axis_1"/>
   <g id="matplotlib.axis_2"/>
   <g id="text_1">
    <!-- 53.57% -->
    <g style="fill:#ffffff;" transform="translate(221.262973 166.350189)scale(0.16 -0.16)">
     <defs>
      <path d="M 1510 2643 
Q 2483 2643 2928 2294 
Q 3373 1946 3373 1318 
Q 3373 928 3190 621 
Q 3008 314 2643 138 
Q 2278 -38 1747 -38 
Q 1267 -38 835 118 
Q 403 275 141 538 
L 365 902 
Q 589 672 953 528 
Q 1318 384 1741 384 
Q 2298 384 2602 633 
Q 2906 883 2906 1299 
Q 2906 1760 2563 1997 
Q 2221 2234 1408 2234 
L 454 2234 
L 685 4480 
L 3136 4480 
L 3136 4070 
L 1088 4070 
L 934 2643 
L 1510 2643 
z
" id="Montserrat-Regular-35" transform="scale(0.015625)"/>
      <path d="M 1856 2560 
Q 2560 2522 2928 2179 
Q 3296 1837 3296 1286 
Q 3296 902 3110 604 
Q 2925 307 2560 134 
Q 2195 -38 1670 -38 
Q 1184 -38 752 118 
Q 320 275 58 538 
L 282 902 
Q 506 672 877 528 
Q 1248 384 1670 384 
Q 2221 384 2521 624 
Q 2822 864 2822 1286 
Q 2822 1702 2521 1939 
Q 2221 2176 1613 2176 
L 1293 2176 
L 1293 2515 
L 2534 4070 
L 243 4070 
L 243 4480 
L 3123 4480 
L 3123 4154 
L 1856 2560 
z
" id="Montserrat-Regular-33" transform="scale(0.015625)"/>
      <path d="M 678 -32 
Q 538 -32 438 70 
Q 339 173 339 320 
Q 339 467 438 566 
Q 538 666 678 666 
Q 819 666 921 566 
Q 1024 467 1024 320 
Q 1024 173 921 70 
Q 819 -32 678 -32 
z
" id="Montserrat-Regular-2e" transform="scale(0.015625)"/>
      <path d="M 3494 4480 
L 3494 4154 
L 1619 0 
L 1120 0 
L 2963 4070 
L 659 4070 
L 659 3232 
L 205 3232 
L 205 4480 
L 3494 4480 
z
" id="Montserrat-Regular-37" transform="scale(0.015625)"/>
      <path d="M 1280 2080 
Q 826 2080 547 2416 
Q 269 2752 269 3296 
Q 269 3840 547 4176 
Q 826 4512 1280 4512 
Q 1728 4512 2009 4179 
Q 2291 3846 2291 3296 
Q 2291 2746 2009 2413 
Q 1728 2080 1280 2080 
z
M 3994 4480 
L 4371 4480 
L 1312 0 
L 934 0 
L 3994 4480 
z
M 1280 2368 
Q 1594 2368 1782 2614 
Q 1971 2861 1971 3296 
Q 1971 3731 1782 3977 
Q 1594 4224 1280 4224 
Q 960 4224 774 3974 
Q 589 3725 589 3296 
Q 589 2867 774 2617 
Q 960 2368 1280 2368 
z
M 4026 -32 
Q 3578 -32 3296 304 
Q 3014 640 3014 1184 
Q 3014 1728 3296 2064 
Q 3578 2400 4026 2400 
Q 4480 2400 4758 2064 
Q 5037 1728 5037 1184 
Q 5037 640 4758 304 
Q 4480 -32 4026 -32 
z
M 4026 256 
Q 4346 256 4531 505 
Q 4717 755 4717 1184 
Q 4717 1613 4531 1862 
Q 4346 2112 4026 2112 
Q 3712 2112 3523 1865 
Q 3334 1619 3334 1184 
Q 3334 749 3523 502 
Q 3712 256 4026 256 
z
" id="Montserrat-Regular-25" transform="scale(0.015625)"/>
     </defs>
     <use xlink:href="#Montserrat-Regular-35"/>
     <use x="56.599991" xlink:href="#Montserrat-Regular-33"/>
     <use x="112.999985" xlink:href="#Montserrat-Regular-2e"/>
     <use x="134.199982" xlink:href="#Montserrat-Regular-35"/>
     <use x="190.799973" xlink:href="#Montserrat-Regular-37"/>
     <use x="249.699966" xlink:href="#Montserrat-Regular-25"/>
    </g>
   </g>
   <g id="text_2">
    <!-- 35.71% -->
    <g style="fill:#ffffff;" transform="translate(212.605821 349.707754)scale(0.16 -0.16)">
     <defs>
      <path d="M 1574 4480 
L 1574 0 
L 1114 0 
L 1114 4070 
L 58 4070 
L 58 4480 
L 1574 4480 
z
" id="Montserrat-Regular-31" transform="scale(0.015625)"/>
     </defs>
     <use xlink:href="#Montserrat-Regular-33"/>
     <use x="56.399994" xlink:href="#Montserrat-Regular-35"/>
     <use x="112.999985" xlink:href="#Montserrat-Regular-2e"/>
     <use x="134.199982" xlink:href="#Montserrat-Regular-37"/>
     <use x="193.099976" xlink:href="#Montserrat-Regular-31"/>
     <use x="229.199966" xlink:href="#Montserrat-Regular-25"/>
    </g>
   </g>
   <g id="text_3">
    <!-- 10.71% -->
    <g style="fill:#ffffff;" transform="translate(322.100037 289.665682)scale(0.16 -0.16)">
     <defs>
      <path d="M 2118 -38 
Q 1600 -38 1193 237 
Q 787 512 560 1027 
Q 333 1542 333 2240 
Q 333 2938 560 3453 
Q 787 3968 1193 4243 
Q 1600 4518 2118 4518 
Q 2637 4518 3043 4243 
Q 3450 3968 3680 3453 
Q 3910 2938 3910 2240 
Q 3910 1542 3680 1027 
Q 3450 512 3043 237 
Q 2637 -38 2118 -38 
z
M 2118 384 
Q 2509 384 2806 601 
Q 3104 819 3270 1235 
Q 3437 1651 3437 2240 
Q 3437 2829 3270 3245 
Q 3104 3661 2806 3878 
Q 2509 4096 2118 4096 
Q 1728 4096 1430 3878 
Q 1133 3661 966 3245 
Q 800 2829 800 2240 
Q 800 1651 966 1235 
Q 1133 819 1430 601 
Q 1728 384 2118 384 
z
" id="Montserrat-Regular-30" transform="scale(0.015625)"/>
     </defs>
     <use xlink:href="#Montserrat-Regular-31"/>
     <use x="36.099991" xlink:href="#Montserrat-Regular-30"/>
     <use x="102.299988" xlink:href="#Montserrat-Regular-2e"/>
     <use x="123.499985" xlink:href="#Montserrat-Regular-37"/>
     <use x="182.399979" xlink:href="#Montserrat-Regular-31"/>
     <use x="218.499969" xlink:href="#Montserrat-Regular-25"/>
    </g>
   </g>
  </g>
 </g>
</svg>
