<?xml version="1.0" encoding="utf-8" standalone="no"?>
<!DOCTYPE svg PUBLIC "-//W3C//DTD SVG 1.1//EN"
  "http://www.w3.org/Graphics/SVG/1.1/DTD/svg11.dtd">
<svg height="504pt" version="1.1" viewBox="0 0 504 504" width="504pt" xmlns="http://www.w3.org/2000/svg" xmlns:xlink="http://www.w3.org/1999/xlink">
 <metadata>
  <rdf:RDF xmlns:cc="http://creativecommons.org/ns#" xmlns:dc="http://purl.org/dc/elements/1.1/" xmlns:rdf="http://www.w3.org/1999/02/22-rdf-syntax-ns#">
   <cc:Work>
    <dc:type rdf:resource="http://purl.org/dc/dcmitype/StillImage"/>
    <dc:date>2021-07-19T22:47:55.761786</dc:date>
    <dc:format>image/svg+xml</dc:format>
    <dc:creator>
     <cc:Agent>
      <dc:title>Matplotlib v3.4.2, https://matplotlib.org/</dc:title>
     </cc:Agent>
    </dc:creator>
   </cc:Work>
  </rdf:RDF>
 </metadata>
 <defs>
  <style type="text/css">*{stroke-linecap:butt;stroke-linejoin:round;}</style>
 </defs>
 <g id="figure_1">
  <g id="patch_1">
   <path d="M 0 504 
L 504 504 
L 504 0 
L 0 0 
z
" style="fill:#ffffff;"/>
  </g>
  <g id="axes_1">
   <g id="patch_2">
    <path d="M 413.532 254.52 
C 413.532 225.990615 405.667071 198.005878 390.804964 173.653392 
C 375.942857 149.300906 354.651029 129.510485 329.278646 116.465642 
C 303.906262 103.420799 275.422077 97.619605 246.9688 99.702114 
C 218.515524 101.784624 191.179544 111.671325 167.976887 128.2714 
L 258.3 254.52 
L 413.532 254.52 
z
" style="fill:#004281;"/>
   </g>
   <g id="patch_3">
    <path d="M 167.976887 128.2714 
C 144.77423 144.871475 126.590807 167.551109 115.432827 193.808018 
C 104.274848 220.064927 100.568339 248.896584 104.722248 277.121942 
C 108.876156 305.3473 120.731879 331.888674 138.981354 353.817706 
C 157.230828 375.746739 181.177263 392.226148 208.178606 401.437731 
L 258.3 254.52 
L 167.976887 128.2714 
z
" style="fill:#006ca3;"/>
   </g>
   <g id="patch_4">
    <path d="M 208.178606 401.437731 
C 231.544001 409.408901 256.477349 411.692303 280.901935 408.097753 
C 305.326522 404.503203 328.544868 395.133348 348.623101 380.768609 
C 368.701335 366.403869 385.066095 347.454451 396.354348 325.498665 
C 407.642601 303.542879 413.531995 279.207702 413.532 254.520029 
L 258.3 254.52 
L 208.178606 401.437731 
z
" style="fill:#0098bc;"/>
   </g>
   <g id="matplotlib.axis_1"/>
   <g id="matplotlib.axis_2"/>
   <g id="text_1">
    <!-- 34.88% -->
    <g style="fill:#ffffff;" transform="translate(272.550937 176.071135)scale(0.16 -0.16)">
     <defs>
      <path d="M 1856 2560 
Q 2560 2522 2928 2179 
Q 3296 1837 3296 1286 
Q 3296 902 3110 604 
Q 2925 307 2560 134 
Q 2195 -38 1670 -38 
Q 1184 -38 752 118 
Q 320 275 58 538 
L 282 902 
Q 506 672 877 528 
Q 1248 384 1670 384 
Q 2221 384 2521 624 
Q 2822 864 2822 1286 
Q 2822 1702 2521 1939 
Q 2221 2176 1613 2176 
L 1293 2176 
L 1293 2515 
L 2534 4070 
L 243 4070 
L 243 4480 
L 3123 4480 
L 3123 4154 
L 1856 2560 
z
" id="Montserrat-Regular-33" transform="scale(0.015625)"/>
      <path d="M 4141 1178 
L 3245 1178 
L 3245 0 
L 2784 0 
L 2784 1178 
L 256 1178 
L 256 1510 
L 2630 4480 
L 3142 4480 
L 851 1587 
L 2797 1587 
L 2797 2624 
L 3245 2624 
L 3245 1587 
L 4141 1587 
L 4141 1178 
z
" id="Montserrat-Regular-34" transform="scale(0.015625)"/>
      <path d="M 678 -32 
Q 538 -32 438 70 
Q 339 173 339 320 
Q 339 467 438 566 
Q 538 666 678 666 
Q 819 666 921 566 
Q 1024 467 1024 320 
Q 1024 173 921 70 
Q 819 -32 678 -32 
z
" id="Montserrat-Regular-2e" transform="scale(0.015625)"/>
      <path d="M 2899 2349 
Q 3322 2208 3549 1926 
Q 3776 1645 3776 1248 
Q 3776 858 3565 566 
Q 3354 275 2960 118 
Q 2566 -38 2035 -38 
Q 1229 -38 768 307 
Q 307 653 307 1248 
Q 307 1651 528 1929 
Q 749 2208 1171 2349 
Q 826 2483 646 2736 
Q 467 2989 467 3334 
Q 467 3878 892 4198 
Q 1318 4518 2035 4518 
Q 2509 4518 2864 4374 
Q 3219 4230 3417 3961 
Q 3616 3693 3616 3334 
Q 3616 2989 3430 2736 
Q 3245 2483 2899 2349 
z
M 928 3322 
Q 928 2950 1222 2732 
Q 1517 2515 2035 2515 
Q 2554 2515 2851 2732 
Q 3149 2950 3149 3315 
Q 3149 3693 2845 3910 
Q 2541 4128 2035 4128 
Q 1523 4128 1225 3910 
Q 928 3693 928 3322 
z
M 2035 352 
Q 2630 352 2966 595 
Q 3302 838 3302 1254 
Q 3302 1670 2966 1910 
Q 2630 2150 2035 2150 
Q 1446 2150 1110 1910 
Q 774 1670 774 1254 
Q 774 832 1107 592 
Q 1440 352 2035 352 
z
" id="Montserrat-Regular-38" transform="scale(0.015625)"/>
      <path d="M 1280 2080 
Q 826 2080 547 2416 
Q 269 2752 269 3296 
Q 269 3840 547 4176 
Q 826 4512 1280 4512 
Q 1728 4512 2009 4179 
Q 2291 3846 2291 3296 
Q 2291 2746 2009 2413 
Q 1728 2080 1280 2080 
z
M 3994 4480 
L 4371 4480 
L 1312 0 
L 934 0 
L 3994 4480 
z
M 1280 2368 
Q 1594 2368 1782 2614 
Q 1971 2861 1971 3296 
Q 1971 3731 1782 3977 
Q 1594 4224 1280 4224 
Q 960 4224 774 3974 
Q 589 3725 589 3296 
Q 589 2867 774 2617 
Q 960 2368 1280 2368 
z
M 4026 -32 
Q 3578 -32 3296 304 
Q 3014 640 3014 1184 
Q 3014 1728 3296 2064 
Q 3578 2400 4026 2400 
Q 4480 2400 4758 2064 
Q 5037 1728 5037 1184 
Q 5037 640 4758 304 
Q 4480 -32 4026 -32 
z
M 4026 256 
Q 4346 256 4531 505 
Q 4717 755 4717 1184 
Q 4717 1613 4531 1862 
Q 4346 2112 4026 2112 
Q 3712 2112 3523 1865 
Q 3334 1619 3334 1184 
Q 3334 749 3523 502 
Q 3712 256 4026 256 
z
" id="Montserrat-Regular-25" transform="scale(0.015625)"/>
     </defs>
     <use xlink:href="#Montserrat-Regular-33"/>
     <use x="56.399994" xlink:href="#Montserrat-Regular-34"/>
     <use x="122.499985" xlink:href="#Montserrat-Regular-2e"/>
     <use x="143.699982" xlink:href="#Montserrat-Regular-38"/>
     <use x="207.499969" xlink:href="#Montserrat-Regular-38"/>
     <use x="271.299957" xlink:href="#Montserrat-Regular-25"/>
    </g>
   </g>
   <g id="text_2">
    <!-- 34.88% -->
    <g style="fill:#ffffff;" transform="translate(137.817099 272.464915)scale(0.16 -0.16)">
     <use xlink:href="#Montserrat-Regular-33"/>
     <use x="56.399994" xlink:href="#Montserrat-Regular-34"/>
     <use x="122.499985" xlink:href="#Montserrat-Regular-2e"/>
     <use x="143.699982" xlink:href="#Montserrat-Regular-38"/>
     <use x="207.499969" xlink:href="#Montserrat-Regular-38"/>
     <use x="271.299957" xlink:href="#Montserrat-Regular-25"/>
    </g>
   </g>
   <g id="text_3">
    <!-- 30.23% -->
    <g style="fill:#ffffff;" transform="translate(285.300111 334.652915)scale(0.16 -0.16)">
     <defs>
      <path d="M 2118 -38 
Q 1600 -38 1193 237 
Q 787 512 560 1027 
Q 333 1542 333 2240 
Q 333 2938 560 3453 
Q 787 3968 1193 4243 
Q 1600 4518 2118 4518 
Q 2637 4518 3043 4243 
Q 3450 3968 3680 3453 
Q 3910 2938 3910 2240 
Q 3910 1542 3680 1027 
Q 3450 512 3043 237 
Q 2637 -38 2118 -38 
z
M 2118 384 
Q 2509 384 2806 601 
Q 3104 819 3270 1235 
Q 3437 1651 3437 2240 
Q 3437 2829 3270 3245 
Q 3104 3661 2806 3878 
Q 2509 4096 2118 4096 
Q 1728 4096 1430 3878 
Q 1133 3661 966 3245 
Q 800 2829 800 2240 
Q 800 1651 966 1235 
Q 1133 819 1430 601 
Q 1728 384 2118 384 
z
" id="Montserrat-Regular-30" transform="scale(0.015625)"/>
      <path d="M 3392 410 
L 3392 0 
L 250 0 
L 250 326 
L 2112 2150 
Q 2464 2496 2589 2749 
Q 2714 3002 2714 3258 
Q 2714 3654 2442 3875 
Q 2170 4096 1664 4096 
Q 877 4096 442 3597 
L 115 3878 
Q 378 4186 784 4352 
Q 1190 4518 1702 4518 
Q 2387 4518 2787 4195 
Q 3187 3872 3187 3309 
Q 3187 2963 3033 2643 
Q 2880 2323 2451 1907 
L 928 410 
L 3392 410 
z
" id="Montserrat-Regular-32" transform="scale(0.015625)"/>
     </defs>
     <use xlink:href="#Montserrat-Regular-33"/>
     <use x="56.399994" xlink:href="#Montserrat-Regular-30"/>
     <use x="122.599991" xlink:href="#Montserrat-Regular-2e"/>
     <use x="143.799988" xlink:href="#Montserrat-Regular-32"/>
     <use x="200.599976" xlink:href="#Montserrat-Regular-33"/>
     <use x="256.999969" xlink:href="#Montserrat-Regular-25"/>
    </g>
   </g>
  </g>
 </g>
</svg>
